<mxfile host="65bd71144e">
    <diagram id="8nviloGVzAm42-r0T5Rw" name="Page-1">
        <mxGraphModel dx="824" dy="499" grid="1" gridSize="10" guides="1" tooltips="1" connect="1" arrows="1" fold="1" page="1" pageScale="1" pageWidth="827" pageHeight="1169" math="0" shadow="0">
            <root>
                <mxCell id="0"/>
                <mxCell id="1" parent="0"/>
                <mxCell id="zedIRr7ikAwTudXr5ELd-1" value="" style="rounded=0;whiteSpace=wrap;html=1;" vertex="1" parent="1">
                    <mxGeometry x="360" y="110" width="120" height="60" as="geometry"/>
                </mxCell>
            </root>
        </mxGraphModel>
    </diagram>
    <diagram id="mFa2CKwII5idXhih-c1l" name="Page-2">
        <mxGraphModel dx="824" dy="739" grid="1" gridSize="10" guides="1" tooltips="1" connect="1" arrows="1" fold="1" page="1" pageScale="1" pageWidth="827" pageHeight="1169" math="0" shadow="0">
            <root>
                <mxCell id="Rx9nLfXyVaNLTe-3qQ1v-0"/>
                <mxCell id="Rx9nLfXyVaNLTe-3qQ1v-1" parent="Rx9nLfXyVaNLTe-3qQ1v-0"/>
            </root>
        </mxGraphModel>
    </diagram>
</mxfile>